<svg id="Слой_1" data-name="Слой 1" xmlns="http://www.w3.org/2000/svg" viewBox="0 0 278.99 67.23"><defs><style>.cls-1{fill:#ff0034;}</style></defs><path class="cls-1" d="M246.06,433h16.53v4.61H239.67V433L256,408.52H239.79V404h22.68v4.55Z" transform="translate(-158.51 -386.88)"/><path class="cls-1" d="M297.39,422.9H270.47a10.59,10.59,0,0,0,10.94,10.57,10.4,10.4,0,0,0,6-1.69,9,9,0,0,0,3.41-4.52h6a14.48,14.48,0,0,1-5.4,7.9,16.4,16.4,0,0,1-10.08,3,17,17,0,0,1-8.57-2.15,15.29,15.29,0,0,1-5.94-6.12,19,19,0,0,1-2.15-9.18,19.26,19.26,0,0,1,2.09-9.16,14.69,14.69,0,0,1,5.87-6,17.41,17.41,0,0,1,8.7-2.12,16.85,16.85,0,0,1,8.48,2.09,14.39,14.39,0,0,1,5.68,5.74,17,17,0,0,1,2,8.27A33.81,33.81,0,0,1,297.39,422.9Zm-7-10a9.14,9.14,0,0,0-3.84-3.5,12,12,0,0,0-5.38-1.2,10.39,10.39,0,0,0-7.22,2.7,11,11,0,0,0-3.41,7.5h21.26A10.34,10.34,0,0,0,290.38,412.85Z" transform="translate(-158.51 -386.88)"/><path class="cls-1" d="M328.31,407.07q3.81,3.72,3.81,10.73v19.85h-5.53V418.59c0-3.35-.84-5.93-2.52-7.71a9,9,0,0,0-6.88-2.67,9.23,9.23,0,0,0-7,2.76q-2.61,2.77-2.61,8v18.63h-5.6V404h5.6v4.79a11.05,11.05,0,0,1,4.51-4,14.08,14.08,0,0,1,6.3-1.42A13.65,13.65,0,0,1,328.31,407.07Z" transform="translate(-158.51 -386.88)"/><path class="cls-1" d="M337.35,436.91a3.82,3.82,0,0,1,2.71-6.52,3.51,3.51,0,0,1,2.61,1.11,4,4,0,0,1,0,5.41,3.5,3.5,0,0,1-2.61,1.1A3.67,3.67,0,0,1,337.35,436.91Z" transform="translate(-158.51 -386.88)"/><path class="cls-1" d="M347.18,411.62a15,15,0,0,1,5.81-6.05,18.44,18.44,0,0,1,18.74.86,14.2,14.2,0,0,1,5.32,8.35h-6a8.65,8.65,0,0,0-3.35-4.85,10.28,10.28,0,0,0-6.17-1.78,9.86,9.86,0,0,0-7.74,3.29q-3,3.29-2.95,9.31t2.95,9.4a9.85,9.85,0,0,0,7.74,3.32,10.47,10.47,0,0,0,6.14-1.72,8.72,8.72,0,0,0,3.38-4.92h6a14.9,14.9,0,0,1-5.41,8.27,16.28,16.28,0,0,1-10.14,3.1,16.71,16.71,0,0,1-8.51-2.15,15,15,0,0,1-5.81-6.09,19.38,19.38,0,0,1-2.09-9.21A19.08,19.08,0,0,1,347.18,411.62Z" transform="translate(-158.51 -386.88)"/><path class="cls-1" d="M382.48,411.62a15.11,15.11,0,0,1,5.75-6.05,15.67,15.67,0,0,1,8.14-2.15,14.93,14.93,0,0,1,7.68,1.9,12.78,12.78,0,0,1,4.86,4.79V404h5.65v33.68h-5.65v-6.27a13.26,13.26,0,0,1-5,4.88,14.79,14.79,0,0,1-7.65,1.94A15.28,15.28,0,0,1,388.2,436a15.55,15.55,0,0,1-5.72-6.21,19.35,19.35,0,0,1-2.09-9.1A18.93,18.93,0,0,1,382.48,411.62Zm24.89,2.49a10.77,10.77,0,0,0-4.15-4.33,11.73,11.73,0,0,0-11.46,0,10.69,10.69,0,0,0-4.12,4.3,13.7,13.7,0,0,0-1.53,6.63,14,14,0,0,0,1.53,6.73,11,11,0,0,0,4.12,4.37,11.18,11.18,0,0,0,5.72,1.5,11.31,11.31,0,0,0,5.74-1.5,10.81,10.81,0,0,0,4.15-4.37,15.13,15.13,0,0,0,0-13.3Z" transform="translate(-158.51 -386.88)"/><path class="cls-1" d="M430.83,405a13,13,0,0,1,6.66-1.6v5.78H436q-9.4,0-9.4,10.2v18.32H421V404h5.6v5.47A10.68,10.68,0,0,1,430.83,405Z" transform="translate(-158.51 -386.88)"/><polygon class="cls-1" points="51.1 51.1 51.1 46.1 32.54 46.1 51.1 27.54 51.1 20.56 20.56 51.1 51.1 51.1"/><polygon class="cls-1" points="16.14 16.14 16.14 21.14 34.7 21.14 16.14 39.69 16.14 46.67 46.67 16.14 16.14 16.14"/><path class="cls-1" d="M192.12,386.88a33.62,33.62,0,1,0,33.62,33.62A33.62,33.62,0,0,0,192.12,386.88Zm0,62.66a29,29,0,1,1,29-29A29,29,0,0,1,192.12,449.54Z" transform="translate(-158.51 -386.88)"/></svg>